# xmcd CD database file
#
# Track frame offsets:
#	150
#	56105
#	84695
#	116325
#	166812
#	197140
#
# Disc length: 3218 seconds
#
# Revision: 2
# Processed by: cddbd v1.4PL0 Copyright (c) Steve Scherf et al.
# Submitted via: CDex 1.40Release
#
DISCID=4a0c9006
DTITLE=Ella Fitzgerald - 30 By Ella
DYEAR=1900
DGENRE=Jazz
TTITLE0=Medley #1: My Mother's Eyes - Try A Little Tenderness - Everything I Have Is Yours - Goodnight, My Love
TTITLE1=Medley #2: Four Or Five Times - Maybe - Taking A Chance On Love - Elmer's Tune - At Sundown - It's A Wonderful World
TTITLE2=Medley #3: On Green Dolphin Street - How Am I To Know - Just Friends - I Cried For You - Seems Like Old Times - You Stepped Out Of A Dream
TTITLE3=Medley #4: If I Give My Heart To You - Once In A While - Ebb Tide - The Lamp Is Low - Where Are You? - Thinking Of You
TTITLE4=Medley #5: Candy - All I Do Is Dream Of You - Spring Is Here - 720 In The Books - It Happened In Monterey - What Can I Say After I'm Sorry
TTITLE5=Medley #6: No Regrets - I've Got A Feelin' You're Foolin' - Don't Blame Me - Deep Purple - Rain - You're A Sweetheart
EXTD=ID3G: 8
EXTT0=
EXTT1=
EXTT2=
EXTT3=
EXTT4=
EXTT5=
PLAYORDER=
